<?xml version="1.0" encoding="UTF-8"?>
<svg xmlns="http://www.w3.org/2000/svg" xmlns:xlink="http://www.w3.org/1999/xlink" width="231pt" height="231pt" viewBox="0 0 231 231" version="1.1">
<g id="surface1">
<path style="fill:none;stroke-width:0.3985;stroke-linecap:butt;stroke-linejoin:miter;stroke:rgb(0%,0%,0%);stroke-opacity:1;stroke-miterlimit:10;" d="M -113.387937 -85.038967 L 113.3855 -85.038967 M -113.387937 -56.691878 L 113.3855 -56.691878 M -113.387937 -28.348695 L 113.3855 -28.348695 M -113.387937 -0.00160552 L 113.3855 -0.00160552 M -113.387937 28.345484 L 113.3855 28.345484 M -113.387937 56.692573 L 113.3855 56.692573 M -113.387937 85.039662 L 113.3855 85.039662 M -113.387937 113.386752 L 113.3855 113.386752 M -113.387937 141.726029 L 113.3855 141.726029 M -113.387937 -85.038967 L -113.387937 141.733841 M -85.040281 -85.038967 L -85.040281 141.733841 M -56.692625 -85.038967 L -56.692625 141.733841 M -28.344969 -85.038967 L -28.344969 141.733841 M -0.00121875 -85.038967 L -0.00121875 141.733841 M 28.346438 -85.038967 L 28.346438 141.733841 M 56.694094 -85.038967 L 56.694094 141.733841 M 85.04175 -85.038967 L 85.04175 141.733841 M 113.377688 -85.038967 L 113.377688 141.733841 " transform="matrix(1,0,0,-1.00002,115.177,143.533551)"/>
<path style="fill-rule:nonzero;fill:rgb(100%,94.898987%,0%);fill-opacity:1;stroke-width:0.3985;stroke-linecap:butt;stroke-linejoin:miter;stroke:rgb(0%,0%,0%);stroke-opacity:1;stroke-miterlimit:10;" d="M 56.694094 -0.00160552 L 113.3855 56.692573 L 28.346438 56.692573 L -0.00121875 141.733841 L -28.344969 56.692573 L -113.387937 56.692573 L -56.692625 -0.00160552 L -85.040281 -85.038967 L -0.00121875 -28.348695 L 85.04175 -85.038967 Z M 56.694094 -0.00160552 " transform="matrix(1,0,0,-1.00002,115.177,143.533551)"/>
</g>
</svg>
